# AST/ASF file generated using VICON BodyLanguage
# -----------------------------------------------
:version 1.10
:name VICON
:units
  mass 1.0
  length 0.45
  angle deg
:documentation
   .ast/.asf automatically generated from VICON data using
   VICON BodyBuilder and BodyLanguage model FoxedUp or BRILLIANT.MOD
:root
   order TX TY TZ RX RY RZ
   axis XYZ
   position 0 0 0  
   orientation 0 0 0 
:bonedata
  begin
     id 1 
     name lhipjoint
     direction 0.646657 -0.683706 0.338203 
     length 2.4948 
     axis 0 0 0  XYZ
  end
  begin
     id 2 
     name lfemur
     direction 0.34202 -0.939693 0  
     length 6.79491  
     axis 0 0 20  XYZ
    dof rx ry rz
    limits (-160.0 20.0)
           (-70.0 70.0)
           (-60.0 70.0)
  end
  begin
     id 3 
     name ltibia
     direction 0.34202 -0.939693 0   
     length 7.56807   
     axis 0 0 20   XYZ
    dof rx
    limits (-10.0 170.0)
  end
  begin
     id 4 
     name lfoot
     direction 0.0679796 -0.186772 0.980048   
     length 2.53018   
     axis -90 7.62852e-016 20   XYZ
    dof rx rz
    limits (-45.0 90.0)
           (-70.0 20.0)
  end
  begin
     id 5 
     name ltoes
     direction 1.53625e-011 -4.21881e-011 1   
     length 1.26912   
     axis -90 7.62852e-016 20   XYZ
    dof rx
    limits (-90.0 20.0)
  end
  begin
     id 6 
     name rhipjoint
     direction -0.618868 -0.704065 0.348274   
     length 2.42265  
     axis 0 0 0  XYZ 
  end
  begin
     id 7 
     name rfemur
     direction -0.34202 -0.939693 0   
     length 6.73814   
     axis 0 0 -20   XYZ
    dof rx ry rz
    limits (-160.0 20.0)
           (-70.0 70.0)
           (-70.0 60.0)
  end
  begin
     id 8 
     name rtibia
     direction -0.34202 -0.939693 0   
     length 7.66799   
     axis 0 0 -20   XYZ
    dof rx
    limits (-10.0 170.0)
 end
 begin
     id 9 
     name rfoot
     direction -0.0727352 -0.199838 0.977125   
     length 2.57224  
     axis -90 -7.62852e-016 -20   XYZ
    dof rx rz
    limits (-45.0 90.0)
           (-20.0 70.0)
  end
  begin
     id 10 
     name rtoes
     direction -1.53501e-011 -4.21858e-011 1   
     length 1.28858   
     axis -90 -7.62852e-016 -20   XYZ
    dof rx
    limits (-90.0 20.0)
  end
  begin
     id 11 
     name lowerback
     direction -0.0172471 0.995767 -0.0902851   
     length 2.20206   
     axis 0 0 0   XYZ
    dof rx ry rz
    limits (-20.0 45.0)
           (-30.0 30.0)
           (-30.0 30.0)
  end
  begin
     id 12 
     name upperback
     direction -0.000110737 0.999714 0.0239043   
     length 2.19523   
     axis 0 0 0   XYZ
    dof rx ry rz
    limits (-20.0 45.0)
           (-30.0 30.0)
           (-30.0 30.0)
  end
  begin
     id 13 
     name thorax
     direction 0.00704869 0.997783 0.0661741   
     length 2.21977   
     axis 0 0 0   XYZ
    dof rx ry rz
    limits (-20.0 45.0)
           (-30.0 30.0)
           (-30.0 30.0)
  end
  begin
     id 14 
     name lowerneck
     direction -0.00407501 0.995527 0.0943846   
     length 1.83142   
     axis 0 0 0   XYZ
    dof rx ry rz
    limits (-20.0 45.0)
           (-30.0 30.0)
           (-30.0 30.0)
  end
  begin
     id 15 
     name upperneck
     direction 0.0640586 0.986486 -0.150807   
     length 1.84616   
     axis 0 0 0   XYZ
    dof rx ry rz
    limits (-20.0 45.0)
           (-30.0 30.0)
           (-30.0 30.0)
  end
  begin
     id 16
     name head
     direction 0.0188017 0.99791 -0.0618239  
     length 1.85932  
     axis 0 0 0   XYZ
    dof rx ry rz
    limits (-20.0 45.0)
           (-30.0 30.0)
           (-30.0 30.0)
  end
  begin
     id 17 
     name lclavicle
     direction 0.976074 0.206905 0.066852  
     length 3.81043  
     axis 0 0 0   XYZ
    dof ry rz
    limits (-20.0 10.0)
           (0.0 20.0)
  end
  begin
     id 18 
     name lhumerus
     direction 1 -4.48971e-011 1.86916e-027   
     length 5.37587   
     axis 180 -30 -90   XYZ
    dof rx ry rz
    limits (-60.0 90.0)
           (-90.0 90.0)
           (-90.0 90.0)
  end
  begin
     id 19
     name lradius
     direction 1 -4.48968e-011 1.69187e-027   
     length 3.35977   
     axis 180 -30 -90   XYZ
    dof rx
    limits (-10.0 170.0)
  end
  begin
     id 20
     name lwrist
     direction 1 -4.48968e-011 5.8978e-027   
     length 1.67988   
     axis -3.27506e-015 90 90   XYZ
    dof ry
    limits (-180.0 0.0)
 end
  begin
     id 21 
     name lhand
     direction 1 -4.49028e-011 1.18071e-026   
     length 0.561859   
     axis -7.52654e-015 90 90   XYZ
    dof rx rz
    limits (-90.0 90.0)
           (-45.0 45.0)
  end
  begin
     id 22 
     name lfingers
     direction 1 -4.48927e-011 2.35758e-026   
     length 0.452985   
     axis -1.50534e-014 90 90   XYZ
    dof rx
    limits (0.0 90.0)
  end
  begin
     id 23
     name lthumb
     direction 0.707107 -6.34898e-011 0.707107   
     length 0.650399   
     axis -90 45 5.69224e-014   XYZ
    dof rx rz
    limits (-45.0 45.0)
           (-45.0 45.0)
  end
  begin
     id 24 
     name rclavicle
     direction -0.988403 0.151789 0.00439714   
     length 3.6942  
     axis 0 0 0   XYZ 
    dof ry rz
    limits (-10.0 20.0)
           (-20.0 0.0)
  end
  begin
     id 25 
     name rhumerus
     direction -1 -4.48978e-011 1.62495e-027  
     length 5.22819   
     axis 180 30 90   XYZ
    dof rx ry rz
    limits (-90.0 60.0)
           (-90.0 90.0)
           (-90.0 90.0)
  end
  begin
     id 26 
     name rradius
     direction -1 -4.48961e-011 3.47796e-027   
     length 3.40764   
     axis 180 30 90   XYZ
    dof rx
    limits (-10.0 170.0)
  end
  begin
     id 27 
     name rwrist
     direction -1 -4.48949e-011 5.89602e-027   
     length 1.70382   
     axis -3.27506e-015 -90 -90   XYZ
    dof ry
    limits (-180.0 0.0)
  end
  begin
     id 28
     name rhand
     direction -1 -4.48977e-011 1.17973e-026   
     length 0.583255   
     axis -7.52654e-015 -90 -90   XYZ
    dof rx rz
    limits (-90.0 90.0)
           (-45.0 45.0)
  end
  begin
     id 29
     name rfingers
     direction -1 -4.49099e-011 2.36408e-026   
     length 0.470235   
     axis -1.50534e-014 -90 -90   XYZ
    dof rx
    limits (0.0 90.0)
  end
  begin
     id 30
     name rthumb
     direction -0.707107 -6.35011e-011 0.707107   
     length 0.675167   
     axis -90 -45 -5.69224e-014   XYZ
    dof rx rz
    limits (-45.0 45.0)
           (-45.0 45.0)
  end
:hierarchy
  begin
    root lhipjoint rhipjoint lowerback
    lhipjoint lfemur
    lfemur ltibia
    ltibia lfoot
    lfoot ltoes
    rhipjoint rfemur
    rfemur rtibia
    rtibia rfoot
    rfoot rtoes
    lowerback upperback
    upperback thorax
    thorax lowerneck lclavicle rclavicle
    lowerneck upperneck
    upperneck head
    lclavicle lhumerus
    lhumerus lradius
    lradius lwrist
    lwrist lhand lthumb
    lhand lfingers
    rclavicle rhumerus
    rhumerus rradius
    rradius rwrist
    rwrist rhand rthumb
    rhand rfingers
  end

#!OML:ASF G:\JayActor3\Patient Classification 1\Patient 1\Session 2\male.ASF
:FULLY-SPECIFIED
:DEGREES
177
root 45.5816 16.3956 -7.07387 49.516 -86.8389 -45.4955
lowerback -4.51977 -0.766003 -0.6618
upperback 3.00708 -1.0464 0.979397
thorax 5.68645 -0.571705 1.28944
lowerneck -8.46132 -5.71959 -4.82153
upperneck 5.42366 -7.85959 9.04092
head 3.55169 -3.63543 3.06553
rclavicle -1.00635e-015 3.37934e-015
rhumerus -26.1014 -6.36959 -86.2005
rradius 24.0457
rwrist 1.00742
rhand -21.6929 5.29293
rfingers 7.12502
rthumb 4.70529 -24.6348
lclavicle -1.00635e-015 3.37934e-015
lhumerus -26.5539 3.48674 88.8615
lradius 24.7129
lwrist 8.32627
lhand -20.0157 18.024
lfingers 7.12502
lthumb 6.32466 47.9095
rfemur -14.1215 -2.83523 23.3806
rtibia 39.4378
rfoot -30.4968 -5.87521
rtoes 20.6854
lfemur -10.5991 4.45881 -20.1888
ltibia 32.1969
lfoot -24.1281 12.4006
ltoes -6.25225
178
root 45.5627 16.3906 -7.06435 50.3644 -86.8184 -46.3269
lowerback -4.48746 -0.758768 -0.635986
upperback 2.99916 -1.03769 0.964914
thorax 5.65856 -0.565897 1.26114
lowerneck -8.57933 -5.52101 -4.68232
upperneck 5.56135 -7.60028 8.8846
head 3.58261 -3.50476 3.00958
rclavicle 1.17034e-014 -1.09332e-015
rhumerus -26.1523 -6.2704 -86.234
rradius 24.0748
rwrist 0.958076
rhand -21.6818 5.27655
rfingers 7.12502
rthumb 4.71599 -24.651
lclavicle 1.17034e-014 -1.09332e-015
lhumerus -26.5611 3.42305 88.8766
lradius 24.6973
lwrist 8.33323
lhand -20.0076 18.0325
lfingers 7.12502
lthumb 6.33251 47.9179
rfemur -14.1029 -2.81158 23.3809
rtibia 39.5164
rfoot -30.5168 -5.74277
rtoes 20.6639
lfemur -10.5908 4.50905 -20.1682
ltibia 32.2833
lfoot -24.2098 12.3913
ltoes -6.33405
179
root 45.5435 16.3854 -7.05405 51.3888 -86.806 -47.3436
lowerback -4.44755 -0.747284 -0.611962
upperback 2.99727 -1.0233 0.950041
thorax 5.63254 -0.557434 1.23403
lowerneck -8.70096 -5.33561 -4.54196
upperneck 5.69231 -7.35796 8.72406
head 3.61384 -3.38281 2.951
rclavicle 1.04113e-014 -8.94531e-016
rhumerus -26.2011 -6.15943 -86.2679
rradius 24.1117
rwrist 0.902257
rhand -21.6725 5.26493
rfingers 7.12502
rthumb 4.72497 -24.6624
lclavicle 1.04113e-014 -8.94531e-016
lhumerus -26.558 3.35734 88.8986
lradius 24.6873
lwrist 8.35605
lhand -20.0002 18.0538
lfingers 7.12502
lthumb 6.33958 47.9389
rfemur -14.0815 -2.76501 23.381
rtibia 39.6096
rfoot -30.5399 -5.63073
rtoes 20.605
lfemur -10.5664 4.54771 -20.1522
ltibia 32.3656
lfoot -24.3025 12.4034
ltoes -6.40381
180
root 45.5239 16.3799 -7.04297 52.6325 -86.803 -48.588
lowerback -4.3984 -0.731874 -0.589614
upperback 2.99792 -1.0036 0.934755
thorax 5.60381 -0.546439 1.208
lowerneck -8.80618 -5.16267 -4.39715
upperneck 5.79832 -7.13107 8.55636
head 3.63617 -3.26973 2.88914
rclavicle -5.06901e-015 1.17283e-014
rhumerus -26.2523 -6.03821 -86.3015
rradius 24.1542
rwrist 0.84682
rhand -21.667 5.26074
rfingers 7.12502
rthumb 4.73035 -24.6665
lclavicle -5.06901e-015 1.17283e-014
lhumerus -26.5545 3.28604 88.9276
lradius 24.6895
lwrist 8.40742
lhand -19.9947 18.0908
lfingers 7.12502
lthumb 6.34491 47.9757
rfemur -14.0588 -2.69137 23.3809
rtibia 39.7199
rfoot -30.5694 -5.53867
rtoes 20.5071
lfemur -10.5253 4.57335 -20.1414
ltibia 32.4418
lfoot -24.4085 12.4391
ltoes -6.45739
181
root 45.5038 16.3742 -7.03109 54.062 -86.8127 -50.024
lowerback -4.34529 -0.714351 -0.574913
upperback 3.00271 -0.980573 0.918445
thorax 5.57722 -0.534136 1.18551
lowerneck -8.90748 -4.99884 -4.24187
upperneck 5.88338 -6.91534 8.37671
head 3.65218 -3.16305 2.82147
rclavicle -5.71506e-016 -5.96354e-016
rhumerus -26.2914 -5.91597 -86.3345
rradius 24.1907
rwrist 0.800833
rhand -21.664 5.26537
rfingers 7.12502
rthumb 4.73321 -24.6618
lclavicle -5.71506e-016 -5.96354e-016
lhumerus -26.5491 3.21726 88.9621
lradius 24.7046
lwrist 8.48963
lhand -19.9837 18.1389
lfingers 7.12502
lthumb 6.35555 48.0235
rfemur -14.0399 -2.59907 23.3738
rtibia 39.8513
rfoot -30.6047 -5.4601
rtoes 20.3743
lfemur -10.4678 4.59157 -20.1414
ltibia 32.511
lfoot -24.5273 12.4938
ltoes -6.50186
